<?xml version="1.0" standalone="no"?>
<!DOCTYPE svg PUBLIC "-//W3C//DTD SVG 20010904//EN"
 "http://www.w3.org/TR/2001/REC-SVG-20010904/DTD/svg10.dtd">
<svg version="1.0" xmlns="http://www.w3.org/2000/svg"
 width="213.000000pt" height="213.000000pt" viewBox="0 0 213.000000 213.000000"
 preserveAspectRatio="xMidYMid meet">
<metadata>
Created by potrace 1.11, written by Peter Selinger 2001-2013
</metadata>
<g transform="translate(0.000000,213.000000) scale(0.100000,-0.100000)"
fill="#000000" stroke="none">
<path d="M748 2125 c-2 -1 -23 -5 -48 -9 -181 -23 -305 -87 -446 -230 -61 -62
-145 -192 -178 -276 -38 -95 -41 -229 -7 -305 29 -65 55 -92 116 -121 56 -27
93 -30 117 -11 40 30 23 72 -48 117 -121 76 -123 186 -8 380 83 139 210 250
340 296 53 18 80 15 91 -12 3 -8 -33 -133 -80 -277 -47 -144 -111 -338 -141
-432 -30 -93 -79 -248 -110 -342 -68 -210 -69 -225 -20 -251 18 -9 27 -8 48 9
19 15 34 49 61 137 44 143 51 158 90 200 35 39 67 55 152 76 91 23 169 66 246
136 162 149 247 342 243 552 -1 69 -6 92 -29 138 -45 90 -125 163 -208 189
-40 13 -177 40 -181 36z m211 -192 c80 -61 113 -232 68 -350 -38 -98 -88 -181
-143 -237 -128 -128 -294 -198 -294 -122 0 43 178 608 221 699 28 61 77 64
148 10z"/>
<path d="M1583 1484 c-60 -15 -198 -76 -258 -113 -150 -92 -268 -278 -292
-462 -20 -146 4 -244 76 -313 74 -71 220 -58 205 17 -5 28 -11 33 -68 54 -75
28 -91 56 -92 165 -2 103 25 201 73 271 44 63 163 166 228 196 122 58 134 63
152 59 29 -6 22 -63 -39 -298 -83 -318 -210 -666 -261 -718 -21 -21 -33 -23
-138 -25 -93 -3 -121 -7 -154 -24 -173 -91 -112 -293 88 -293 69 0 98 11 162
59 27 21 57 41 66 44 9 3 43 -8 75 -25 138 -73 274 -77 422 -12 151 66 249
220 236 370 -10 111 -47 175 -139 245 -29 22 -56 48 -60 57 -5 12 11 33 58 77
135 126 170 200 165 345 -2 76 -8 105 -27 144 -27 55 -84 117 -130 140 -86 45
-255 64 -348 40z m269 -144 c73 -21 135 -127 126 -219 -9 -96 -117 -223 -235
-278 -95 -44 -108 -22 -74 115 11 43 22 91 25 108 3 17 12 49 20 72 8 23 13
42 11 42 -9 0 36 135 51 151 20 22 26 23 76 9z m-139 -696 c74 -19 106 -35
152 -76 52 -45 78 -101 76 -165 -1 -69 -27 -120 -91 -175 -67 -59 -135 -83
-230 -83 -65 1 -83 5 -138 33 -35 18 -65 39 -68 46 -6 15 9 58 63 181 22 50
48 112 58 138 21 58 58 104 88 110 12 2 24 5 26 6 2 0 31 -6 64 -15z m-540
-461 c4 -2 7 -10 7 -16 0 -28 -91 -57 -115 -37 -22 18 -19 28 17 50 29 17 63
19 91 3z"/>
</g>
</svg>
